<svg xmlns="http://www.w3.org/2000/svg" viewBox="710 0 620 2050" fill="none" role="img" aria-label="Ismael">
  <path
    fill="#ec5823"
    d="M 1209.11 834.486 L 1210.05 834.082 C 1217.31 830.896 1225.22 825.996 1232.09 823.385 C 1245.22 818.393 1262.04 819.1 1275.11 824.149 C 1282.25 826.965 1288.87 830.932 1294.72 835.891 C 1299.21 839.668 1311.85 854.27 1313.66 854.834 C 1315.13 865.435 1318.44 874.539 1318.17 885.005 C 1317.86 896.928 1314.48 907.772 1314.87 919.663 L 1314.91 921.468 C 1314.93 921.829 1314.95 922.19 1314.97 922.551 C 1315.94 997.192 1315.24 1072.9 1315.33 1147.67 L 1315.37 1631.12 L 1315.4 1886.22 L 1315.44 1967.71 C 1315.48 2012.52 1325.26 2046.63 1264.37 2045.24 C 1240.38 2044.69 1214.66 2045.5 1190.38 2044.86 C 1089.58 2042.93 993.773 2000.58 924.502 1927.33 C 880.267 1881.13 848.717 1824.28 832.91 1762.3 C 818.036 1703.72 820.795 1672.78 820.811 1613.26 L 820.845 1499.1 L 820.99 1217.99 C 814.367 1218.96 807.669 1219.34 800.978 1219.12 C 745.637 1216.8 715.766 1150.18 754.624 1109.13 C 767.669 1095.35 792.738 1082.78 809.583 1072.8 L 878.923 1031.84 C 965.002 980.898 1053.7 929.022 1138.79 876.979 C 1150.8 869.513 1162.98 862.337 1175.33 855.457 C 1184.73 850.13 1201.61 841.551 1209.11 834.486 z"
  />
  <path
    fill="#1d222d"
    d="M 1209.11 834.486 L 1210.05 834.082 C 1217.31 830.896 1225.22 825.996 1232.09 823.385 C 1245.22 818.393 1262.04 819.1 1275.11 824.149 C 1282.25 826.965 1288.87 830.932 1294.72 835.891 C 1299.21 839.668 1311.85 854.27 1313.66 854.834 C 1315.13 865.435 1318.44 874.539 1318.17 885.005 C 1317.86 896.928 1314.48 907.772 1314.87 919.663 L 1314.91 921.468 C 1314.93 921.829 1314.95 922.19 1314.97 922.551 L 1313.26 916.745 C 1305.51 925.142 1293.59 939.057 1284.24 944.82 C 1257.94 961.028 1230.15 977.088 1203.47 992.689 L 1068.29 1072.97 L 911.5 1166.42 L 859.185 1197.42 C 847.212 1204.45 833.764 1212.9 820.99 1217.99 C 814.367 1218.96 807.669 1219.34 800.978 1219.12 C 745.637 1216.8 715.766 1150.18 754.624 1109.13 C 767.669 1095.35 792.738 1082.78 809.583 1072.8 L 878.923 1031.84 C 965.002 980.898 1053.7 929.022 1138.79 876.979 C 1150.8 869.513 1162.98 862.337 1175.33 855.457 C 1184.73 850.13 1201.61 841.551 1209.11 834.486 z"
  />
  <path
    fill="#fd9420"
    d="M 1209.11 834.486 C 1189.46 830.323 1123.49 787.684 1103.74 775.897 C 1033.05 734.604 963.093 692.08 893.892 648.343 C 873.115 635.469 852.199 626.819 832.751 611.349 C 811.483 594.432 819.025 570.461 819.971 545.536 C 820.566 526.183 820.774 506.82 820.594 487.459 L 819.038 183.204 L 819.175 82.7015 C 819.133 70.6613 817.813 39.2916 820.038 28.9348 C 821.457 22.0831 825.595 16.1005 831.506 12.3558 C 845.408 3.38536 878.468 6.2268 895.578 6.09373 C 936.121 5.7784 989.249 6.30604 1028.59 15.7002 C 1087.84 29.8456 1161.12 69.7252 1205.37 112.617 C 1227.1 134.073 1245.91 158.306 1261.29 184.686 C 1287.03 227.971 1306.24 274.548 1312.55 324.97 C 1316.04 352.793 1315.81 377.796 1316.23 405.479 L 1317.02 476.239 C 1317.67 562.05 1317.22 647.866 1315.68 733.666 C 1315.48 758.573 1319.6 834.041 1313.66 854.834 C 1311.85 854.27 1299.21 839.668 1294.72 835.891 C 1288.87 830.932 1282.25 826.965 1275.11 824.149 C 1262.04 819.1 1245.22 818.393 1232.09 823.385 C 1225.22 825.996 1217.31 830.896 1210.05 834.082 L 1209.11 834.486 z"
  />
</svg>
