<svg xmlns="http://www.w3.org/2000/svg" viewBox="817.9 5.7 499.5 2039.7" fill="none" role="img" aria-label="Ismael">
  <path
    fill="#ec5823"
    d="M 820.99 1189.99 L 1315.33 894.34 L 1315.33 922.34 C 1315.94 997.192 1315.24 1072.9 1315.33 1147.67 L 1315.37 1631.12 L 1315.4 1886.22 L 1315.44 1967.71 C 1315.48 2012.52 1325.26 2046.63 1264.37 2045.24 C 1240.38 2044.69 1214.66 2045.5 1190.38 2044.86 C 1089.58 2042.93 993.773 2000.58 924.502 1927.33 C 880.267 1881.13 848.717 1824.28 832.91 1762.3 C 818.036 1703.72 820.795 1672.78 820.811 1613.26 L 820.845 1499.1 L 820.99 1217.99 z"
  />
  <path
    fill="#fd9420"
    d="M 1209.11 834.486 C 1189.46 830.323 1123.49 787.684 1103.74 775.897 C 1033.05 734.604 963.093 692.08 893.892 648.343 C 873.115 635.469 852.199 626.819 832.751 611.349 C 811.483 594.432 819.025 570.461 819.971 545.536 C 820.566 526.183 820.774 506.82 820.594 487.459 L 819.038 183.204 L 819.175 82.7015 C 819.133 70.6613 817.813 39.2916 820.038 28.9348 C 821.457 22.0831 825.595 16.1005 831.506 12.3558 C 845.408 3.38536 878.468 6.2268 895.578 6.09373 C 936.121 5.7784 989.249 6.30604 1028.59 15.7002 C 1087.84 29.8456 1161.12 69.7252 1205.37 112.617 C 1227.1 134.073 1245.91 158.306 1261.29 184.686 C 1287.03 227.971 1306.24 274.548 1312.55 324.97 C 1316.04 352.793 1315.81 377.796 1316.23 405.479 L 1317.02 476.239 C 1317.67 562.05 1317.22 647.866 1315.68 733.666 L 1315.33 770.96 L 1209.11 834.486 z"
  />
  <path
    fill="#1d222d"
    d="M 820.99 1066.61 L 1315.33 770.96 L 1315.33 922.34 L 820.99 1217.99 z"
  />
</svg>
